<svg width="108" height="105" viewBox="0 0 108 105" fill="none" xmlns="http://www.w3.org/2000/svg">
<path d="M19.6193 0H88.7235C99.2006 0 107.671 8.52564 107.671 19.0705V85.9295C107.671 96.4744 99.2006 105 88.7235 105H19.6193C9.14222 105 0.671387 96.4744 0.671387 85.9295V19.0705C0.671387 8.52564 9.14222 0 19.6193 0Z" fill="#330000"/>
<path d="M52.5218 63H35.9368L32.5485 73.5449C32.4593 73.9487 32.1026 74.2179 31.7014 74.1731H23.3197C22.8293 74.1731 22.6956 73.9038 22.8293 73.3654L37.1851 31.7692C37.3189 31.3205 37.4526 30.8269 37.631 30.2885C37.8093 29.3462 37.8985 28.359 37.8985 27.3718C37.8539 27.1474 38.0322 26.9231 38.2551 26.8782C38.2997 26.8782 38.3443 26.8782 38.3889 26.8782H49.8022C50.1589 26.8782 50.3372 27.0128 50.3818 27.2372L66.6547 73.4551C66.7885 73.9487 66.6547 74.1731 66.2089 74.1731H56.891C56.5789 74.2179 56.2668 73.9936 56.1776 73.6795L52.5218 63ZM38.5226 53.891H49.8468C49.5793 52.9487 49.2226 51.8269 48.8214 50.6603C48.4201 49.4487 48.0189 48.1474 47.6176 46.8013C47.1718 45.4103 46.7706 44.0641 46.3247 42.6731C45.8789 41.282 45.4776 39.9808 45.121 38.6795C44.7643 37.4231 44.4522 36.2564 44.1401 35.1795H44.051C43.6497 37.109 43.1593 39.0385 42.5351 40.9679C41.8664 43.1218 41.1976 45.3654 40.4843 47.609C39.8601 49.8974 39.1914 52.0064 38.5226 53.891Z" fill="#FF9A00"/>
<path d="M76.3739 34.5513C74.9026 34.5962 73.4759 34.0128 72.4059 32.9808C71.3805 31.859 70.8455 30.3782 70.8901 28.8526C70.8455 27.3269 71.4251 25.891 72.4951 24.859C73.5651 23.8269 74.9918 23.2885 76.463 23.2885C78.2018 23.2885 79.5393 23.8269 80.5201 24.859C81.501 25.9359 82.0359 27.3718 81.9914 28.8526C82.0359 30.3782 81.5009 31.859 80.4309 32.9808C79.4055 34.0577 77.8897 34.641 76.3739 34.5513ZM71.3805 73.5V38.9487C71.3805 38.5 71.5589 38.3205 71.9601 38.3205H80.7876C81.1889 38.3205 81.3672 38.5449 81.3672 38.9487V73.5C81.3672 73.9936 81.1889 74.2179 80.7876 74.2179H72.0493C71.6035 74.2179 71.3805 73.9487 71.3805 73.5Z" fill="#FF9A00"/>
</svg>
