<svg width="109" height="105" viewBox="0 0 109 105" fill="none" xmlns="http://www.w3.org/2000/svg">
<path d="M19.7964 0H89.5464C100.121 0 108.671 8.52564 108.671 19.0705V85.9295C108.671 96.4744 100.121 105 89.5464 105H19.7964C9.22139 105 0.671387 96.4744 0.671387 85.9295V19.0705C0.671387 8.52564 9.22139 0 19.7964 0Z" fill="#1D1B1B"/>
<g clip-path="url(#clip0_1994_38)">
<path d="M42.3829 88.4211C48.9751 88.4211 54.3252 83.1084 54.3252 76.5625V64.704H42.3829C35.7908 64.704 30.4406 70.0166 30.4406 76.5625C30.4406 83.1084 35.7908 88.4211 42.3829 88.4211Z" fill="#0ACF83"/>
<path d="M30.4406 52.8454C30.4406 46.2995 35.7908 40.9868 42.3829 40.9868H54.3252V64.704H42.3829C35.7908 64.704 30.4406 59.3913 30.4406 52.8454Z" fill="#A259FF"/>
<path d="M30.4406 29.1283C30.4406 22.5824 35.7908 17.2697 42.3829 17.2697H54.3252V40.9869H42.3829C35.7908 40.9869 30.4406 35.6742 30.4406 29.1283Z" fill="#F24E1E"/>
<path d="M54.3253 17.2697H66.2676C72.8597 17.2697 78.2099 22.5824 78.2099 29.1283C78.2099 35.6742 72.8597 40.9869 66.2676 40.9869H54.3253V17.2697Z" fill="#FF7262"/>
<path d="M78.2099 52.8454C78.2099 59.3913 72.8597 64.704 66.2676 64.704C59.6754 64.704 54.3253 59.3913 54.3253 52.8454C54.3253 46.2995 59.6754 40.9868 66.2676 40.9868C72.8597 40.9868 78.2099 46.2995 78.2099 52.8454Z" fill="#1ABCFE"/>
</g>
<defs>
<clipPath id="clip0_1994_38">
<rect width="47.7692" height="71.1513" fill="white" transform="translate(30.4406 17.2697)"/>
</clipPath>
</defs>
</svg>
