<svg width="111" height="107" viewBox="0 0 111 107" fill="none" xmlns="http://www.w3.org/2000/svg">
<path d="M20.1506 0H91.1922C101.963 0 110.671 8.68803 110.671 19.4338V87.5662C110.671 98.312 101.963 107 91.1922 107H20.1506C9.37972 107 0.671387 98.312 0.671387 87.5662V19.4338C0.671387 8.68803 9.37972 0 20.1506 0Z" fill="#001E36"/>
<path d="M25.4214 75.0372V27.9846C25.4214 27.6645 25.5589 27.4816 25.8797 27.4816C26.6589 27.4816 27.3922 27.4816 28.4464 27.4359C29.5464 27.3902 30.6922 27.3902 31.9297 27.3445C33.1672 27.2987 34.4964 27.2987 35.9172 27.253C37.3381 27.2073 38.7131 27.2073 40.0881 27.2073C43.8464 27.2073 46.9631 27.6645 49.5297 28.6248C51.8214 29.4021 53.9297 30.6825 55.6714 32.3744C57.1381 33.8376 58.2839 35.6209 59.0172 37.5872C59.7047 39.5077 60.0714 41.4739 60.0714 43.5316C60.0714 47.4641 59.1547 50.7107 57.3214 53.2714C55.4881 55.8321 52.9214 57.7526 49.9422 58.85C46.8256 59.9932 43.3881 60.4047 39.6297 60.4047C38.5297 60.4047 37.7964 60.4047 37.3381 60.359C36.8797 60.3133 36.2381 60.3133 35.3672 60.3133V74.9915C35.4131 75.3115 35.1839 75.5859 34.8631 75.6316C34.8172 75.6316 34.7714 75.6316 34.6797 75.6316H25.9714C25.6047 75.6316 25.4214 75.4487 25.4214 75.0372ZM35.4131 36.3068V51.6709C36.0547 51.7167 36.6506 51.7624 37.2006 51.7624H39.6297C41.4172 51.7624 43.2047 51.488 44.9006 50.9393C46.3672 50.5278 47.6506 49.659 48.6589 48.5158C49.6214 47.3727 50.0797 45.818 50.0797 43.806C50.1256 42.3885 49.7589 40.971 49.0256 39.7363C48.2464 38.5474 47.1464 37.6329 45.8172 37.1299C44.1214 36.444 42.2881 36.1697 40.4089 36.2154C39.2172 36.2154 38.1631 36.2154 37.2922 36.2611C36.3756 36.2154 35.7339 36.2611 35.4131 36.3068Z" fill="#31A8FF"/>
<path d="M88.6714 48.8816C87.2964 48.15 85.8297 47.647 84.2714 47.3269C82.5756 46.9611 80.8797 46.7325 79.1381 46.7325C78.2214 46.6867 77.2589 46.8239 76.3881 47.0526C75.7922 47.1897 75.2881 47.5098 74.9672 47.9671C74.7381 48.3329 74.6006 48.7902 74.6006 49.2017C74.6006 49.6132 74.7839 50.0248 75.0589 50.3906C75.4714 50.8936 76.0214 51.3051 76.6172 51.6252C77.6714 52.1739 78.7714 52.6769 79.8714 53.1342C82.3464 53.9573 84.7297 55.1004 86.9297 56.4722C88.4422 57.4325 89.6797 58.7128 90.5506 60.2675C91.2839 61.7308 91.6506 63.3312 91.6047 64.9773C91.6506 67.1265 91.0089 69.2756 89.8172 71.059C88.5339 72.888 86.7464 74.3055 84.6839 75.1286C82.4381 76.0889 79.6881 76.5919 76.3881 76.5919C74.2797 76.5919 72.2172 76.409 70.1547 75.9974C68.5506 75.7231 66.9464 75.2201 65.4797 74.5342C65.1589 74.3513 64.9297 74.0312 64.9756 73.6654V65.709C64.9756 65.5718 65.0214 65.3889 65.1589 65.2974C65.2964 65.206 65.4339 65.2517 65.5714 65.3432C67.3589 66.3949 69.2381 67.1265 71.2547 67.5838C72.9964 68.041 74.8297 68.2697 76.6631 68.2697C78.4047 68.2697 79.6422 68.041 80.4672 67.6295C81.2006 67.3094 81.7047 66.532 81.7047 65.709C81.7047 65.0688 81.3381 64.4743 80.6047 63.8799C79.8714 63.2855 78.3589 62.5996 76.1131 61.7308C73.7756 60.9077 71.6214 59.8102 69.6047 58.4385C68.1839 57.4325 66.9922 56.1064 66.1214 54.5517C65.3881 53.0885 65.0214 51.488 65.0672 49.8876C65.0672 47.9214 65.6172 46.0466 66.6256 44.3547C67.7714 42.5256 69.4672 41.0624 71.4381 40.1479C73.5922 39.0504 76.2964 38.5474 79.5506 38.5474C81.4297 38.5474 83.3547 38.6846 85.2339 38.959C86.6089 39.1419 87.9381 39.5077 89.1756 40.0107C89.3589 40.0564 89.5422 40.2393 89.6339 40.4222C89.6797 40.6051 89.7256 40.788 89.7256 40.9709V48.4243C89.7256 48.6073 89.6339 48.7902 89.4964 48.8816C89.0839 48.9731 88.8547 48.9731 88.6714 48.8816Z" fill="#31A8FF"/>
</svg>
