<svg width="117" height="105" viewBox="0 0 117 105" fill="none" xmlns="http://www.w3.org/2000/svg">
<path d="M25.9057 3.61506L58.5 0.169174L91.0943 3.61506L116.329 37.4899L58.5 104.831L0.671387 37.4899L25.9057 3.61506Z" fill="#FDB300"/>
<path d="M24.0949 37.4898L58.5 104.831L0.671375 37.4898H24.0949Z" fill="#EA6C00"/>
<path d="M92.9051 37.4899L58.4999 104.831L116.329 37.4899H92.9051Z" fill="#EA6C00"/>
<path d="M24.0949 37.4899H92.9053L58.5001 104.831L24.0949 37.4899Z" fill="#FDAD00"/>
<path d="M58.5001 0.169174L25.9056 3.61502L24.0949 37.4899L58.5001 0.169174Z" fill="#FDD231"/>
<path d="M58.4998 0.169174L91.0943 3.61502L92.905 37.4899L58.4998 0.169174Z" fill="#FDD231"/>
<path d="M116.329 37.4898L91.0941 3.61494L92.9051 37.4898H116.329Z" fill="#FDAD00"/>
<path d="M0.671375 37.4898L25.9056 3.61494L24.0949 37.4898H0.671375Z" fill="#FDAD00"/>
<path d="M58.5001 0.169174L24.0949 37.4899H92.9053L58.5001 0.169174Z" fill="#FEEEB7"/>
</svg>
